<svg xmlns="http://www.w3.org/2000/svg" version="1.1" xmlns:xlink="http://www.w3.org/1999/xlink" xmlns:svgjs="http://svgjs.com/svgjs" width="300" height="300"><svg version="1.1" id="SvgjsSvg1000" xmlns="http://www.w3.org/2000/svg" xmlns:xlink="http://www.w3.org/1999/xlink" x="0px" y="0px" viewBox="0 0 300 300" style="enable-background:new 0 0 300 300;" xml:space="preserve">
<style type="text/css">
	.st0{fill:none;stroke:#000000;stroke-width:2.0903;stroke-miterlimit:10;}
	.st1{fill:#1F1F1F;stroke:#000000;stroke-width:2.0903;stroke-miterlimit:10;}
</style>
<g>
	<path class="st0" d="M141,97.8l22.4-14.1v19.7c4.8-1.4,9.3-2.4,13.3-3V66.1h-36.2C141.8,75.3,142.1,85.9,141,97.8z"></path>
	<path class="st0" d="M138.7,114.3c3.5-2.2,7-4.1,10.4-5.6c4.6-2.1,9.2-3.8,13.6-5.1V85.3L140.9,99
		C140.4,103.9,139.7,109,138.7,114.3z"></path>
	<path class="st0" d="M103.6,177.9c-0.4,4.9-0.5,9.7-0.4,14.3h5.8c15.1-28,24.1-53.6,28.5-75.9C121.5,127,106,145.6,103.6,177.9z"></path>
	<path class="st0" d="M103.6,201.7c1.6-2.8,3.3-5.7,4.8-8.5h-5.2C103.2,196.1,103.4,198.9,103.6,201.7z"></path>
	<path class="st1" d="M212.5,146.9l14.7-81.8h-49.7V9.3L267.6,36l0.2-1L176.7,8v57.1h-36.4c-0.6-3.5-1.3-6.8-2.1-9.9
		c-5.9-21.1-18.7-34.4-36.1-37.5C81,14,60.6,28.4,43,59.5C29.7,82.9,22.6,107.8,22.5,108l0.8,0.4c0.1-0.2,7.2-25,20.4-48.3
		c22-38.8,43.9-43.9,58.3-41.3c17.1,3,29.7,16.1,35.5,36.9c0.8,3,1.5,6.1,2,9.5h-12v1h12.2c1.4,9.3,1.7,20.1,0.5,32.2l-121,76.3
		v-25.1h-0.8v25.6l-9.9,6.2v1.1l9.9-6.2v116.9h0.8V175.8L140,99.5c-0.5,4.9-1.3,10.1-2.3,15.4c-16.4,10.7-32.5,29.7-35,62.9
		c-0.4,5-0.5,9.8-0.4,14.4h-50v1h50c0.1,3.3,0.3,6.5,0.6,9.7c-6.2,10.6-13.2,21.5-21.3,32.6l0.6,0.7c7.8-10.9,14.7-21.5,20.8-31.9
		c1.9,18,7.6,33.2,17.1,45.3c17.6,22.6,45.6,30.1,64,30.1c2.4,0,4.7-0.1,6.7-0.4l-0.1-1c-17.4,2.1-50.4-4.1-70.1-29.4
		c-9.5-12.2-15.1-27.5-16.9-45.7c1.9-3.3,3.8-6.7,5.6-9.9h22.7v-1h-22.2c15.2-28.2,24.1-54.1,28.5-76.6c3.7-2.4,7.3-4.4,10.9-6
		c4.5-2.1,9-3.7,13.3-5v73.9h0.8v-74.1c4.8-1.4,9.3-2.4,13.3-3v34.5h0.8v-34.6c7.8-1.2,13.1-1.3,13.3-1.3c0,0,0,0,0,0l0-1
		c0,0,0,0,0,0c-0.2,0-5.5,0-13.3,1.3V66.1h48.7l-14.5,80.5l-0.3,0.3l0.2,0.2l-6.2,34.5l0.8,0.2l6.1-33.9l78.3,100.5l0.6-0.7
		L212.5,146.9z M103.6,201.7c-0.2-2.8-0.4-5.6-0.5-8.5h5.2C106.9,196,105.3,198.9,103.6,201.7z M109,192.2h-5.8
		c-0.1-4.6,0-9.4,0.4-14.3c2.4-32.3,17.9-50.9,33.9-61.6C133.1,138.6,124.1,164.2,109,192.2z M162.6,103.6
		c-4.4,1.3-8.9,2.9-13.6,5.1c-3.4,1.6-6.9,3.4-10.4,5.6c1-5.3,1.7-10.4,2.2-15.3l21.7-13.7V103.6z M176.7,100.4
		c-3.9,0.6-8.4,1.6-13.3,3V83.7L141,97.8c1.1-11.8,0.8-22.4-0.5-31.6h36.2V100.4z"></path>
	<rect x="188.1" y="140.4" class="st1" width="0.8" height="114.1"></rect>
</g>
</svg><style>@media (prefers-color-scheme: light) { :root { filter: none; } }
</style></svg>